<svg width="20" height="20" viewBox="0 0 20 20" fill="none" xmlns="http://www.w3.org/2000/svg">
<g opacity="0.25" filter="url(#filter0_d_0_456)">
<path d="M9.99863 5.94724C9.9922 5.84603 9.95134 5.74983 9.88256 5.67396L5.70371 1.13112C5.5924 1.00945 5.42312 0.955277 5.25984 0.989076C5.09656 1.02287 4.96421 1.13949 4.91281 1.29484C4.86141 1.45018 4.89881 1.62056 5.01086 1.74157L8.91039 5.97919L5.01086 10.2168C4.8988 10.3378 4.86141 10.5082 4.91281 10.6635C4.96421 10.8189 5.09656 10.9355 5.25984 10.9693C5.42312 11.0031 5.5924 10.9489 5.70371 10.8273L9.88256 6.28441C9.96649 6.19213 10.0084 6.0704 9.99863 5.94724Z" fill="black"/>
<path d="M9.99863 5.94724C9.9922 5.84603 9.95134 5.74983 9.88256 5.67396L5.70371 1.13112C5.5924 1.00945 5.42312 0.955277 5.25984 0.989076C5.09656 1.02287 4.96421 1.13949 4.91281 1.29484C4.86141 1.45018 4.89881 1.62056 5.01086 1.74157L8.91039 5.97919L5.01086 10.2168C4.8988 10.3378 4.86141 10.5082 4.91281 10.6635C4.96421 10.8189 5.09656 10.9355 5.25984 10.9693C5.42312 11.0031 5.5924 10.9489 5.70371 10.8273L9.88256 6.28441C9.96649 6.19213 10.0084 6.0704 9.99863 5.94724Z" stroke="black"/>
</g>
<defs>
<filter id="filter0_d_0_456" x="0.290039" y="0.379211" width="14.3101" height="19.2" filterUnits="userSpaceOnUse" color-interpolation-filters="sRGB">
<feFlood flood-opacity="0" result="BackgroundImageFix"/>
<feColorMatrix in="SourceAlpha" type="matrix" values="0 0 0 0 0 0 0 0 0 0 0 0 0 0 0 0 0 0 127 0" result="hardAlpha"/>
<feOffset dy="4"/>
<feGaussianBlur stdDeviation="2"/>
<feComposite in2="hardAlpha" operator="out"/>
<feColorMatrix type="matrix" values="0 0 0 0 0 0 0 0 0 0 0 0 0 0 0 0 0 0 0.25 0"/>
<feBlend mode="normal" in2="BackgroundImageFix" result="effect1_dropShadow_0_456"/>
<feBlend mode="normal" in="SourceGraphic" in2="effect1_dropShadow_0_456" result="shape"/>
</filter>
</defs>
</svg>
