<svg width="29" height="28" viewBox="0 0 29 28" fill="none" xmlns="http://www.w3.org/2000/svg">
<g clip-path="url(#clip0_119811_6023)">
<path d="M1.45115 14.836L27.5511 14.836C27.6466 14.8352 27.7417 14.8254 27.8353 14.8066L27.9571 14.7654C28.0089 14.7551 28.0595 14.7393 28.1079 14.7183C28.1541 14.6983 28.1987 14.6746 28.2413 14.6476C28.2817 14.6316 28.3205 14.6119 28.3573 14.5887C28.5158 14.479 28.6517 14.339 28.7575 14.1766L28.8213 14.0648C28.848 14.0195 28.8713 13.9723 28.8909 13.9235C28.8909 13.8764 28.8909 13.8234 28.9373 13.7763C28.9516 13.7359 28.9632 13.6946 28.9721 13.6527C29.0145 13.4588 29.0145 13.2578 28.9721 13.0639C28.9633 13.02 28.9516 12.9768 28.9373 12.9344C28.9373 12.8873 28.9083 12.8343 28.8909 12.7872C28.8735 12.7401 28.8445 12.693 28.8213 12.6459L28.7575 12.5341C28.7073 12.452 28.6469 12.3768 28.5777 12.3103L16.8675 0.435662C16.5945 0.167139 16.2284 0.018239 15.8482 0.0210352C15.468 0.0238323 15.1041 0.178101 14.8348 0.450613C14.5656 0.723125 14.4126 1.09208 14.4088 1.47799C14.4049 1.86391 14.5506 2.23592 14.8143 2.51388L24.0537 11.8923L1.43375 11.8923C1.04918 11.8923 0.680368 12.0474 0.408442 12.3234C0.136513 12.5995 -0.0162525 12.9738 -0.0162525 13.3642C-0.0162525 13.7545 0.136513 14.1289 0.408442 14.4049C0.680368 14.6809 1.04918 14.836 1.43375 14.836H1.45115Z" fill="#979797"/>
<path d="M17.0627 26.9593L25.9747 17.9132C26.541 17.3384 26.541 16.4065 25.9747 15.8317C25.4084 15.2569 24.4903 15.2569 23.9241 15.8317L15.0121 24.8778C14.4459 25.4526 14.4459 26.3845 15.0121 26.9593C15.5784 27.534 16.4965 27.534 17.0627 26.9593Z" fill="#7B2ABF"/>
</g>
<defs>
<clipPath id="clip0_119811_6023">
<rect width="29" height="28" fill="white" transform="translate(29 28) rotate(-180)"/>
</clipPath>
</defs>
</svg>
